<svg height="34" viewBox="0 0 34 34" width="34" xmlns="http://www.w3.org/2000/svg"><path d="m27.9949334 7.1482049c-1.3412386-2.19944766-3.1614909-3.94067706-5.460757-5.2236882-2.2992661-1.28301113-4.8038238-1.9245167-7.5273593-1.9245167-2.7235354 0-5.23493618.64150557-7.53420228 1.9245167-2.2992661 1.28301114-4.11951842 3.02424054-5.46075698 5.2236882s-2.01185784 4.6018206-2.01185784 7.2005727c0 3.1289761.95118449 5.9371995 2.86039652 8.437762s4.37271142 4.2287 7.39734118 5.1844124c.3489958.0654597.6090318.0196379.7801082-.1309196.1710763-.1505574.253193-.3338447.253193-.5629538 0-.0392759 0-.3731206-.0068431-1.0080802-.006843-.6349596-.006843-1.1913675-.006843-1.6626777l-.4516416.0720057c-.2874082.0523678-.6500901.0720058-1.08120249.0654598-.43795545-.006546-.889597-.0523678-1.35492467-.1309195-.47217071-.0785517-.90328311-.268385-1.30702329-.5629539-.40374017-.2945689-.69114844-.6742354-.86222478-1.1520916l-.19844857-.4320344c-.13001802-.2880229-.33530964-.6022297-.61587484-.9557124-.28056521-.3469366-.56113042-.5825917-.84853868-.7069653l-.13686108-.0916436c-.0889597-.0654598-.1779194-.1374655-.25319299-.2225632-.0752736-.0850977-.13686108-.1767413-.1779194-.261839-.04105833-.0850977-.00684306-.1571034.09580275-.2160172.10264581-.0589137.29425132-.0850976.56797347-.0850976l.39005407.0589137c.26003605.0523678.58165958.1963793.9648706.4516723.38321101.2487471.69799149.5760458.94434143.9688043.30109437.5105861.66377623.9033446 1.08120251 1.1651836.42426934.268385.84853868.3993045 1.27965107.3993045.4311124 0 .80063729-.0327299 1.11541779-.0916436.3147805-.0654598.6021887-.1571034.8759109-.281477.1163319-.8378848.4379554-1.4793904.9580275-1.9245167-.7390498-.0720057-1.4096691-.1898333-2.0050148-.3338447-.59534564-.1505574-1.20437743-.3927585-1.83393839-.7266033-.62956095-.3338447-1.1564761-.7527871-1.57390239-1.2502812-.41742628-.4974941-.75957898-1.1520916-1.02645808-1.9637926-.2668791-.8117009-.40374018-1.7412294-.40374018-2.8016773 0-1.5055743.51322904-2.7885855 1.54653018-3.84903345-.47901377-1.13245371-.43795545-2.4023729.13686108-3.80975756.37636796-.11128158.93749838-.0261839 1.68339125.25529303s1.28649413.52367802 1.62864683.72005727c.3421527.19637926.6227179.36657461.8280095.50404009 1.2112205-.32075278 2.4634994-.48440216 3.7499935-.48440216 1.2864942 0 2.538773.16364938 3.7499935.48440216l.7390499-.44512631c.5063859-.30111486 1.1085747-.57604582 1.7997231-.82479287.6911485-.24874706 1.2180636-.32075279 1.5807455-.20292524.5885026 1.40738467.636404 2.67730385.1573902 3.80975756 1.0264581 1.06044798 1.5465302 2.34345908 1.5465302 3.84903338 0 1.060448-.1368611 1.9965225-.4037402 2.8147694s-.6090318 1.4728444-1.0333011 1.9637925c-.4242694.4909481-.9511845.9098906-1.5807455 1.2437353-.6295609.3338447-1.2454358.5825918-1.8339384.7266032-.5953457.1505575-1.2591219.261839-2.0050148.3338448.6774623.5629538 1.012772 1.4466605 1.012772 2.6511199v3.9406771c0 .2225631.0821166.4123964.2463499.5629538.1642333.1505575.4174263.1963793.7732651.1309196 3.0246298-.9622584 5.4881292-2.6903958 7.3973412-5.1844124 1.9092121-2.5005625 2.8603966-5.3087859 2.8603966-8.437762.006843-2.5987521-.6637763-5.00112504-2.0050148-7.2005727z" fill="#fff" transform="translate(2 3)"/></svg>