<svg height="34" viewBox="0 0 34 34" width="34" xmlns="http://www.w3.org/2000/svg"><path d="m0 12.8002002c0 5.2414001 3.15180005 9.7442001 7.66190011 11.7239002-.036-.8938-.0064-1.9668001.22280001-2.9393001.2461-1.0391 1.64700002-6.9748001 1.64700002-6.9748001s-.4089-.8173-.4089-2.0252c0-1.8969 1.09940006-3.31360006 2.46860006-3.31360006 1.1643 0 1.7268.87450006 1.7268 1.92170006 0 1.1704-.7465 2.9211-1.1304 4.5426-.3207 1.3578001.6808 2.4653001 2.0203 2.4653001 2.4252 0 4.0586001-3.1149001 4.0586001-6.8055001 0-2.80540007-1.8895001-4.9052001-5.3262001-4.9052001-3.88280007 0-6.3017001 2.89560004-6.3017001 6.1300001 0 1.1152.3288 1.9016.84380001 2.5106.23680001.2797.26970001.3922.184.7134-.0614.2355-.2024.8025-.2608 1.0272001-.0852.3242-.3479.4401-.64090001.3204-1.78840003-.7301001-2.62130004-2.6886001-2.62130004-4.8902001 0-3.63610007 3.06660005-7.99610014 9.14820014-7.99610014 4.8870001 0 8.1035001 3.53640006 8.1035001 7.33250014 0 5.0213-2.7916 8.7726001-6.9066001 8.7726001-1.3819 0-2.6818-.747-3.1271-1.5955 0 0-.7431 2.9492-.9005 3.5187-.2714.9869-.80260006 1.9733001-1.28830006 2.7421001 1.15120006.3398 2.36730006.5249 3.62770006.5249 7.0684001 0 12.7996002-5.7309001 12.7996002-12.8005002 0-7.06930011-5.7312001-12.8002002-12.7996002-12.8002002-7.06910011 0-12.8005002 5.73090009-12.8005002 12.8002002z" fill="#fff" transform="translate(4 4)"/></svg>