<svg height="34" viewBox="0 0 34 34" width="34" xmlns="http://www.w3.org/2000/svg"><path d="m24.9487819 14.7112427v9.2631262h-5.3473318v-8.6427378c0-2.1711262-.7734339-3.652835-2.7089907-3.652835-1.4775522 0-2.3568446.9985631-2.7436775 1.9645049-.1410673.3453204-.1773782.8259611-.1773782 1.3093398v9.0217281h-5.34912992s.07204177-14.63796113 0-16.15456307h5.34860792v2.28984467c-.0108469.0171262-.024942.0355922-.0351508.0521942h.0351508v-.0521942c.7106148-1.09916506 1.9796983-2.66935924 4.8203016-2.66935924 3.5193155-.00005825 6.1575986 2.30889321 6.1575986 7.27095144zm-21.92192575-14.67873785c-1.8299304 0-3.02685615 1.20541748-3.02685615 2.79058253 0 1.55062136 1.16229698 2.79262136 2.95585847 2.79262136h.03573086c1.86537123 0 3.02546403-1.24176699 3.02546403-2.79262136-.03515081-1.58516505-1.1600928-2.79058253-2.99019721-2.79058253zm-2.70916474 23.94186405h5.34709977v-16.15456307h-5.34709977z" fill="#fff" transform="translate(5 4)"/></svg>