<svg height="34" viewBox="0 0 34 34" width="34" xmlns="http://www.w3.org/2000/svg"><path d="m30.087239 9.78926174c1.9090487-.147651 3.1948956-.95973154 3.699768-2.05973154-.6863109.39865772-2.82413.82684564-3.999536.41342282-.0552204-.25838926-.1183295-.50201342-.1893271-.73087248-.899304-3.08590604-3.9758701-5.57382551-7.1944316-5.27114094.2603248-.09597316.5285383-.19194631.7888631-.27315437.3549884-.1181208 2.437587-.43557046 2.1062645-1.12214765-.2761021-.60536912-2.8162413.45771812-3.2974478.59798658.6310905-.22147651 1.6802784-.60536913 1.7907193-1.28456376-.9703017.12550336-1.9169374.55369128-2.6505801 1.17382551.2682135-.26577182.4654293-.59060403.512761-.94496645-2.587471 1.55771812-4.0941995 4.66577182-5.3169373 7.6852349-.9545244-.87114094-1.8064965-1.55033557-2.5716937-1.93422819-2.1378191-1.07046979-4.69373555-2.19261745-8.70904877-3.58791946-.1262181 1.24026846.65475638 2.89395973 2.90301624 3.99395973-.48909513-.0590604-1.38051044.07382551-2.09048724.23624161.29187935 1.42483222 1.23851508 2.59865772 3.80232019 3.15973155-1.1675174.0738255-1.774942.3248322-2.32714617.8563758.53642691.9892618 1.83805104 2.1557047 4.18097445 1.9120806-2.60324824 1.0483221-1.0649652 2.9973154 1.0570766 2.7020134-3.61299305 3.4919463-9.3085847 3.233557-12.5823666.3174497 8.54338747 10.8966443 27.1132251 6.4449664 29.8821346-4.0530202 2.0747099.0147651 3.2895591-.6718121 4.0468677-1.4322147-1.1911833.1993288-2.9266821.0073825-3.8417633-.35436246z" fill="#fff" transform="translate(0 6)"/></svg>